<svg width="828" height="1098" viewBox="0 0 828 1098" xmlns="http://www.w3.org/2000/svg"><rect x="0" y="0" width="828" height="1098" rx="0" fill="#CBD5E1"/><text x="30" y="32" font-family="Inter,Arial,Helvetica,sans-serif" font-size="13" font-weight="700" fill="#334155" text-anchor="start">Tablet · Dashboard (768–1199 px)</text><clipPath id="c3"><rect width="768" height="1024"/></clipPath><g transform="translate(30,44)" clip-path="url(#c3)"><rect x="0" y="0" width="768" height="1024" rx="0" fill="#F8FAFC"/><rect x="0" y="0" width="72" height="1024" rx="0" fill="#0F172A"/><text x="36" y="44" font-family="Inter,Arial,Helvetica,sans-serif" font-size="22" font-weight="700" fill="#fff" text-anchor="middle">S</text><rect x="24" y="96" width="24" height="24" rx="6" fill="#2563EB"/><rect x="24" y="148" width="24" height="24" rx="6" fill="#334155"/><rect x="24" y="200" width="24" height="24" rx="6" fill="#334155"/><rect x="24" y="252" width="24" height="24" rx="6" fill="#334155"/><rect x="24" y="304" width="24" height="24" rx="6" fill="#334155"/><rect x="24" y="960" width="24" height="24" rx="6" fill="#334155"/><rect x="72" y="0" width="696" height="64" rx="0" fill="#fff"/><path d="M72 64H768" stroke="#E2E8F0"/><text x="96" y="40" font-family="Inter,Arial,Helvetica,sans-serif" font-size="16" font-weight="700" fill="#0F172A" text-anchor="start">Admin Portal</text><path d="M605 42 h14 l-2 -3 v-5 a5 5 0 0 0 -10 0 v5 z" fill="none" stroke="#334155" stroke-width="1.5"/><circle cx="618" cy="29" r="3" fill="#EF4444"/><text x="640" y="42" font-family="Inter,Arial,Helvetica,sans-serif" font-size="13" font-weight="600" fill="#0F172A" text-anchor="start">Admin User</text><circle cx="738" cy="32" r="14" fill="#E2E8F0"/><text x="738" y="36" font-family="Inter,Arial,Helvetica,sans-serif" font-size="10.5" font-weight="700" fill="#334155" text-anchor="middle">AU</text><text x="96" y="110" font-family="Inter,Arial,Helvetica,sans-serif" font-size="24" font-weight="700" fill="#0F172A" text-anchor="start">Administrator Dashboard</text><text x="96" y="134" font-family="Inter,Arial,Helvetica,sans-serif" font-size="13" font-weight="400" fill="#64748B" text-anchor="start">Overview and management of student complaints</text><rect x="96" y="156" width="150" height="92" rx="10" fill="#fff" stroke="#E2E8F0"/><text x="110" y="180" font-family="Inter,Arial,Helvetica,sans-serif" font-size="10.5" font-weight="600" fill="#64748B" text-anchor="start">TOTAL COMPLAINTS</text><text x="110" y="210" font-family="Inter,Arial,Helvetica,sans-serif" font-size="26" font-weight="700" fill="#0F172A" text-anchor="start">142</text><text x="110" y="236" font-family="Inter,Arial,Helvetica,sans-serif" font-size="10.5" font-weight="400" fill="#64748B" text-anchor="start">All submitted</text><rect x="262" y="156" width="150" height="92" rx="10" fill="#fff" stroke="#E2E8F0"/><text x="276" y="180" font-family="Inter,Arial,Helvetica,sans-serif" font-size="10.5" font-weight="600" fill="#64748B" text-anchor="start">PENDING</text><text x="276" y="210" font-family="Inter,Arial,Helvetica,sans-serif" font-size="26" font-weight="700" fill="#0F172A" text-anchor="start">38</text><text x="276" y="236" font-family="Inter,Arial,Helvetica,sans-serif" font-size="10.5" font-weight="400" fill="#64748B" text-anchor="start">Awaiting action</text><rect x="428" y="156" width="150" height="92" rx="10" fill="#fff" stroke="#E2E8F0"/><text x="442" y="180" font-family="Inter,Arial,Helvetica,sans-serif" font-size="10.5" font-weight="600" fill="#64748B" text-anchor="start">IN REVIEW</text><text x="442" y="210" font-family="Inter,Arial,Helvetica,sans-serif" font-size="26" font-weight="700" fill="#0F172A" text-anchor="start">27</text><text x="442" y="236" font-family="Inter,Arial,Helvetica,sans-serif" font-size="10.5" font-weight="400" fill="#64748B" text-anchor="start">Being reviewed</text><rect x="594" y="156" width="150" height="92" rx="10" fill="#fff" stroke="#E2E8F0"/><text x="608" y="180" font-family="Inter,Arial,Helvetica,sans-serif" font-size="10.5" font-weight="600" fill="#64748B" text-anchor="start">RESOLVED</text><text x="608" y="210" font-family="Inter,Arial,Helvetica,sans-serif" font-size="26" font-weight="700" fill="#0F172A" text-anchor="start">77</text><text x="608" y="236" font-family="Inter,Arial,Helvetica,sans-serif" font-size="10.5" font-weight="400" fill="#64748B" text-anchor="start">Successfully resolved</text><text x="96" y="282" font-family="Inter,Arial,Helvetica,sans-serif" font-size="18" font-weight="700" fill="#0F172A" text-anchor="start">Review Queue</text><rect x="96" y="296" width="648" height="44" rx="8" fill="#fff" stroke="#CBD5E1"/><text x="112" y="323" font-family="Inter,Arial,Helvetica,sans-serif" font-size="13" font-weight="400" fill="#94A3B8" text-anchor="start">Search complaints...</text><rect x="96" y="352" width="150" height="38" rx="8" fill="#fff" stroke="#CBD5E1"/><text x="110" y="376" font-family="Inter,Arial,Helvetica,sans-serif" font-size="13" font-weight="600" fill="#0F172A" text-anchor="start">Category</text><path d="M222 368 l5 5 l5 -5" stroke="#0F172A" stroke-width="1.6" fill="none"/><rect x="262" y="352" width="150" height="38" rx="8" fill="#fff" stroke="#CBD5E1"/><text x="276" y="376" font-family="Inter,Arial,Helvetica,sans-serif" font-size="13" font-weight="600" fill="#0F172A" text-anchor="start">Status</text><path d="M388 368 l5 5 l5 -5" stroke="#0F172A" stroke-width="1.6" fill="none"/><rect x="428" y="352" width="150" height="38" rx="8" fill="#fff" stroke="#CBD5E1"/><text x="442" y="376" font-family="Inter,Arial,Helvetica,sans-serif" font-size="13" font-weight="600" fill="#0F172A" text-anchor="start">Priority</text><path d="M554 368 l5 5 l5 -5" stroke="#0F172A" stroke-width="1.6" fill="none"/><rect x="594" y="352" width="150" height="38" rx="8" fill="#fff" stroke="#CBD5E1"/><text x="608" y="376" font-family="Inter,Arial,Helvetica,sans-serif" font-size="13" font-weight="600" fill="#0F172A" text-anchor="start">Date</text><path d="M720 368 l5 5 l5 -5" stroke="#0F172A" stroke-width="1.6" fill="none"/><rect x="96" y="412" width="648" height="288" rx="10" fill="#fff" stroke="#E2E8F0"/><rect x="97" y="413" width="646" height="39" rx="9" fill="#F1F5F9"/><text x="112" y="437" font-family="Inter,Arial,Helvetica,sans-serif" font-size="10.5" font-weight="600" fill="#64748B" text-anchor="start">ID</text><text x="180" y="437" font-family="Inter,Arial,Helvetica,sans-serif" font-size="10.5" font-weight="600" fill="#64748B" text-anchor="start">STUDENT</text><text x="310" y="437" font-family="Inter,Arial,Helvetica,sans-serif" font-size="10.5" font-weight="600" fill="#64748B" text-anchor="start">CATEGORY</text><text x="420" y="437" font-family="Inter,Arial,Helvetica,sans-serif" font-size="10.5" font-weight="600" fill="#64748B" text-anchor="start">PRIORITY</text><text x="520" y="437" font-family="Inter,Arial,Helvetica,sans-serif" font-size="10.5" font-weight="600" fill="#64748B" text-anchor="start">STATUS</text><text x="656" y="437" font-family="Inter,Arial,Helvetica,sans-serif" font-size="10.5" font-weight="600" fill="#64748B" text-anchor="start">ACTION</text><text x="112" y="481" font-family="Inter,Arial,Helvetica,sans-serif" font-size="13" font-weight="700" fill="#0F172A" text-anchor="start">#1024</text><text x="180" y="481" font-family="Inter,Arial,Helvetica,sans-serif" font-size="13" font-weight="400" fill="#0F172A" text-anchor="start">Ama Mensah</text><text x="310" y="481" font-family="Inter,Arial,Helvetica,sans-serif" font-size="13" font-weight="400" fill="#0F172A" text-anchor="start">Academic</text><rect x="420" y="465" width="47.2" height="22" rx="11" fill="#FEF3C7"/><text x="443.6" y="480" font-family="Inter,Arial,Helvetica,sans-serif" font-size="11" font-weight="600" fill="#92400E" text-anchor="middle">High</text><rect x="520" y="465" width="67.6" height="22" rx="11" fill="#FEF3C7"/><text x="553.8" y="480" font-family="Inter,Arial,Helvetica,sans-serif" font-size="11" font-weight="600" fill="#92400E" text-anchor="middle">Pending</text><text x="656" y="481" font-family="Inter,Arial,Helvetica,sans-serif" font-size="13" font-weight="600" fill="#2563EB" text-anchor="start">View</text><path d="M96 500H744" stroke="#E2E8F0"/><text x="112" y="529" font-family="Inter,Arial,Helvetica,sans-serif" font-size="13" font-weight="700" fill="#0F172A" text-anchor="start">#1023</text><text x="180" y="529" font-family="Inter,Arial,Helvetica,sans-serif" font-size="13" font-weight="400" fill="#0F172A" text-anchor="start">Kojo Asare</text><text x="310" y="529" font-family="Inter,Arial,Helvetica,sans-serif" font-size="13" font-weight="400" fill="#0F172A" text-anchor="start">Facilities</text><rect x="420" y="513" width="60.8" height="22" rx="11" fill="#E2E8F0"/><text x="450.4" y="528" font-family="Inter,Arial,Helvetica,sans-serif" font-size="11" font-weight="600" fill="#334155" text-anchor="middle">Medium</text><rect x="520" y="513" width="81.19999999999999" height="22" rx="11" fill="#DBEAFE"/><text x="560.6" y="528" font-family="Inter,Arial,Helvetica,sans-serif" font-size="11" font-weight="600" fill="#1E40AF" text-anchor="middle">In Review</text><text x="656" y="529" font-family="Inter,Arial,Helvetica,sans-serif" font-size="13" font-weight="600" fill="#2563EB" text-anchor="start">View</text><path d="M96 548H744" stroke="#E2E8F0"/><text x="112" y="577" font-family="Inter,Arial,Helvetica,sans-serif" font-size="13" font-weight="700" fill="#0F172A" text-anchor="start">#1022</text><text x="180" y="577" font-family="Inter,Arial,Helvetica,sans-serif" font-size="13" font-weight="400" fill="#0F172A" text-anchor="start">Efua Owusu</text><text x="310" y="577" font-family="Inter,Arial,Helvetica,sans-serif" font-size="13" font-weight="400" fill="#0F172A" text-anchor="start">Finance</text><rect x="420" y="561" width="60.8" height="22" rx="11" fill="#E2E8F0"/><text x="450.4" y="576" font-family="Inter,Arial,Helvetica,sans-serif" font-size="11" font-weight="600" fill="#334155" text-anchor="middle">Medium</text><rect x="520" y="561" width="74.4" height="22" rx="11" fill="#DCFCE7"/><text x="557.2" y="576" font-family="Inter,Arial,Helvetica,sans-serif" font-size="11" font-weight="600" fill="#166534" text-anchor="middle">Resolved</text><text x="656" y="577" font-family="Inter,Arial,Helvetica,sans-serif" font-size="13" font-weight="600" fill="#2563EB" text-anchor="start">View</text><path d="M96 596H744" stroke="#E2E8F0"/><text x="112" y="625" font-family="Inter,Arial,Helvetica,sans-serif" font-size="13" font-weight="700" fill="#0F172A" text-anchor="start">#1021</text><text x="180" y="625" font-family="Inter,Arial,Helvetica,sans-serif" font-size="13" font-weight="400" fill="#0F172A" text-anchor="start">Kofi Mensah</text><text x="310" y="625" font-family="Inter,Arial,Helvetica,sans-serif" font-size="13" font-weight="400" fill="#0F172A" text-anchor="start">Academic</text><rect x="420" y="609" width="60.8" height="22" rx="11" fill="#FEE2E2"/><text x="450.4" y="624" font-family="Inter,Arial,Helvetica,sans-serif" font-size="11" font-weight="600" fill="#991B1B" text-anchor="middle">Urgent</text><rect x="520" y="609" width="67.6" height="22" rx="11" fill="#FEF3C7"/><text x="553.8" y="624" font-family="Inter,Arial,Helvetica,sans-serif" font-size="11" font-weight="600" fill="#92400E" text-anchor="middle">Pending</text><text x="656" y="625" font-family="Inter,Arial,Helvetica,sans-serif" font-size="13" font-weight="600" fill="#2563EB" text-anchor="start">View</text><path d="M96 644H744" stroke="#E2E8F0"/><text x="112" y="676" font-family="Inter,Arial,Helvetica,sans-serif" font-size="12" font-weight="400" fill="#64748B" text-anchor="start">Showing 1–4 of 142</text><rect x="548" y="652" width="30" height="30" rx="6" fill="#2563EB" stroke="#2563EB"/><text x="563.0" y="672" font-family="Inter,Arial,Helvetica,sans-serif" font-size="12" font-weight="600" fill="#fff" text-anchor="middle">1</text><rect x="582" y="652" width="30" height="30" rx="6" fill="#fff" stroke="#CBD5E1"/><text x="597.0" y="672" font-family="Inter,Arial,Helvetica,sans-serif" font-size="12" font-weight="600" fill="#0F172A" text-anchor="middle">2</text><rect x="616" y="652" width="30" height="30" rx="6" fill="#fff" stroke="#CBD5E1"/><text x="631.0" y="672" font-family="Inter,Arial,Helvetica,sans-serif" font-size="12" font-weight="600" fill="#0F172A" text-anchor="middle">3</text><rect x="678" y="652" width="34" height="30" rx="6" fill="#fff" stroke="#CBD5E1"/><text x="695.0" y="672" font-family="Inter,Arial,Helvetica,sans-serif" font-size="12" font-weight="600" fill="#0F172A" text-anchor="middle">36</text><text x="650" y="672" font-family="Inter,Arial,Helvetica,sans-serif" font-size="13" font-weight="400" fill="#64748B" text-anchor="middle">…</text><rect x="96" y="730" width="648" height="170" rx="10" fill="#EFF6FF" stroke="#BFDBFE"/><text x="116" y="760" font-family="Inter,Arial,Helvetica,sans-serif" font-size="13" font-weight="700" fill="#1E40AF" text-anchor="start">What changes at tablet (768–1199 px)</text><text x="116" y="790" font-family="Inter,Arial,Helvetica,sans-serif" font-size="12.5" font-weight="400" fill="#1E3A8A" text-anchor="start">• Sidebar collapses to a 72 px icon rail; labels appear on hover/tap when built</text><text x="116" y="814" font-family="Inter,Arial,Helvetica,sans-serif" font-size="12.5" font-weight="400" fill="#1E3A8A" text-anchor="start">• KPI cards stay 4-up but tighten to 150 px wide</text><text x="116" y="838" font-family="Inter,Arial,Helvetica,sans-serif" font-size="12.5" font-weight="400" fill="#1E3A8A" text-anchor="start">• Table drops the Date column (shown on the detail screen)</text><text x="116" y="862" font-family="Inter,Arial,Helvetica,sans-serif" font-size="12.5" font-weight="400" fill="#1E3A8A" text-anchor="start">• Search gets its own row; the four filters sit in one row below</text><text x="116" y="886" font-family="Inter,Arial,Helvetica,sans-serif" font-size="12.5" font-weight="400" fill="#1E3A8A" text-anchor="start">• Touch targets stay at least 38 px tall</text></g></svg>